<?xml version="1.0" encoding="UTF-8"?>
<svg xmlns="http://www.w3.org/2000/svg" viewBox="0 0 1120 620" font-family="Arial, 'PingFang SC', 'Microsoft YaHei', sans-serif">
  <defs>
    <marker id="arrow" viewBox="0 0 10 10" refX="9" refY="5" markerWidth="7" markerHeight="7" orient="auto-start-reverse">
      <path d="M0,0 L10,5 L0,10 z" fill="#64748b"/>
    </marker>
  </defs>
  <rect width="1120" height="620" fill="#fbfbfd"/>

  <text x="560" y="30" text-anchor="middle" font-size="22" font-weight="bold" fill="#0f172a">设备接入流程</text>

  <!-- 列 A：云对云接入 -->
  <text x="200" y="56" text-anchor="middle" font-size="12" font-weight="bold" letter-spacing="2" fill="#2563eb">云对云接入</text>
  <g>
    <rect x="40" y="70" width="320" height="64" rx="10" fill="#eff6ff" stroke="#93c5fd" stroke-width="1.5"/>
    <text x="200" y="95" text-anchor="middle" font-size="13" font-weight="bold" fill="#0f172a">租户 OAuth 授权</text>
    <text x="200" y="114" text-anchor="middle" font-size="11" fill="#475569">厂商账号授权</text>

    <rect x="40" y="160" width="320" height="64" rx="10" fill="#eff6ff" stroke="#93c5fd" stroke-width="1.5"/>
    <text x="200" y="185" text-anchor="middle" font-size="13" font-weight="bold" fill="#0f172a">适配器拉取设备</text>
    <text x="200" y="204" text-anchor="middle" font-size="11" fill="#475569">经厂商 OpenAPI</text>

    <rect x="40" y="250" width="320" height="64" rx="10" fill="#eff6ff" stroke="#93c5fd" stroke-width="1.5"/>
    <text x="200" y="275" text-anchor="middle" font-size="13" font-weight="bold" fill="#0f172a">注册 · 统一物模型</text>
    <text x="200" y="294" text-anchor="middle" font-size="11" fill="#475569">iot-device 服务</text>

    <rect x="40" y="340" width="320" height="64" rx="10" fill="#eff6ff" stroke="#93c5fd" stroke-width="1.5"/>
    <text x="200" y="365" text-anchor="middle" font-size="13" font-weight="bold" fill="#0f172a">订阅厂商 Webhook</text>
    <text x="200" y="384" text-anchor="middle" font-size="11" fill="#475569">属性 · 事件回调</text>

    <rect x="40" y="430" width="320" height="64" rx="10" fill="#eff6ff" stroke="#93c5fd" stroke-width="1.5"/>
    <text x="200" y="455" text-anchor="middle" font-size="13" font-weight="bold" fill="#0f172a">事件 → Kafka</text>
    <text x="200" y="474" text-anchor="middle" font-size="11" fill="#475569">iot-data → TDengine</text>

    <rect x="40" y="520" width="320" height="64" rx="10" fill="#eff6ff" stroke="#93c5fd" stroke-width="1.5"/>
    <text x="200" y="552" text-anchor="middle" font-size="13" font-weight="bold" fill="#0f172a">WebSocket 推送前端</text>
  </g>
  <line x1="200" y1="134" x2="200" y2="158" stroke="#64748b" stroke-width="2" marker-end="url(#arrow)"/>
  <line x1="200" y1="224" x2="200" y2="248" stroke="#64748b" stroke-width="2" marker-end="url(#arrow)"/>
  <line x1="200" y1="314" x2="200" y2="338" stroke="#64748b" stroke-width="2" marker-end="url(#arrow)"/>
  <line x1="200" y1="404" x2="200" y2="428" stroke="#64748b" stroke-width="2" marker-end="url(#arrow)"/>
  <line x1="200" y1="494" x2="200" y2="518" stroke="#64748b" stroke-width="2" marker-end="url(#arrow)"/>

  <!-- 列 B：直连 MQTT -->
  <text x="560" y="56" text-anchor="middle" font-size="12" font-weight="bold" letter-spacing="2" fill="#7c3aed">直连 MQTT 接入</text>
  <g>
    <rect x="400" y="70" width="320" height="64" rx="10" fill="#faf5ff" stroke="#d8b4fe" stroke-width="1.5"/>
    <text x="560" y="95" text-anchor="middle" font-size="13" font-weight="bold" fill="#0f172a">设备 MQTT → EMQX</text>
    <text x="560" y="114" text-anchor="middle" font-size="11" fill="#475569">mTLS · 客户端证书</text>

    <rect x="400" y="160" width="320" height="64" rx="10" fill="#faf5ff" stroke="#d8b4fe" stroke-width="1.5"/>
    <text x="560" y="185" text-anchor="middle" font-size="13" font-weight="bold" fill="#0f172a">iot-access 消费事件</text>
    <text x="560" y="204" text-anchor="middle" font-size="11" fill="#475569">事件流</text>

    <rect x="400" y="250" width="320" height="64" rx="10" fill="#faf5ff" stroke="#d8b4fe" stroke-width="1.5"/>
    <text x="560" y="275" text-anchor="middle" font-size="13" font-weight="bold" fill="#0f172a">设备影子（Redis）</text>
    <text x="560" y="294" text-anchor="middle" font-size="11" fill="#475569">实时状态</text>

    <rect x="400" y="340" width="320" height="64" rx="10" fill="#faf5ff" stroke="#d8b4fe" stroke-width="1.5"/>
    <text x="560" y="365" text-anchor="middle" font-size="13" font-weight="bold" fill="#0f172a">事件 → Kafka</text>
    <text x="560" y="384" text-anchor="middle" font-size="11" fill="#475569">时序存储</text>

    <rect x="400" y="430" width="320" height="64" rx="10" fill="#faf5ff" stroke="#d8b4fe" stroke-width="1.5"/>
    <text x="560" y="462" text-anchor="middle" font-size="13" font-weight="bold" fill="#0f172a">实时推送</text>
    <text x="560" y="481" text-anchor="middle" font-size="11" fill="#475569">WebSocket 推送客户端</text>
  </g>
  <line x1="560" y1="134" x2="560" y2="158" stroke="#64748b" stroke-width="2" marker-end="url(#arrow)"/>
  <line x1="560" y1="224" x2="560" y2="248" stroke="#64748b" stroke-width="2" marker-end="url(#arrow)"/>
  <line x1="560" y1="314" x2="560" y2="338" stroke="#64748b" stroke-width="2" marker-end="url(#arrow)"/>
  <line x1="560" y1="404" x2="560" y2="428" stroke="#64748b" stroke-width="2" marker-end="url(#arrow)"/>

  <!-- 列 C：指令下发 -->
  <text x="920" y="56" text-anchor="middle" font-size="12" font-weight="bold" letter-spacing="2" fill="#16a34a">指令下发</text>
  <g>
    <rect x="760" y="70" width="320" height="64" rx="10" fill="#f0fdf4" stroke="#86efac" stroke-width="1.5"/>
    <text x="920" y="95" text-anchor="middle" font-size="13" font-weight="bold" fill="#0f172a">前端操作</text>
    <text x="920" y="114" text-anchor="middle" font-size="11" fill="#475569">点击 · 表单 · 自动化</text>

    <rect x="760" y="160" width="320" height="64" rx="10" fill="#f0fdf4" stroke="#86efac" stroke-width="1.5"/>
    <text x="920" y="185" text-anchor="middle" font-size="13" font-weight="bold" fill="#0f172a">iot-gateway</text>
    <text x="920" y="204" text-anchor="middle" font-size="11" fill="#475569">JWT · RBAC · 输入扫描</text>

    <rect x="760" y="250" width="320" height="64" rx="10" fill="#f0fdf4" stroke="#86efac" stroke-width="1.5"/>
    <text x="920" y="275" text-anchor="middle" font-size="13" font-weight="bold" fill="#0f172a">iot-device</text>
    <text x="920" y="294" text-anchor="middle" font-size="11" fill="#475569">指令校验</text>

    <rect x="760" y="340" width="320" height="64" rx="10" fill="#f0fdf4" stroke="#86efac" stroke-width="1.5"/>
    <text x="920" y="365" text-anchor="middle" font-size="13" font-weight="bold" fill="#0f172a">适配器 / EMQX</text>
    <text x="920" y="384" text-anchor="middle" font-size="11" fill="#475569">路由到目标</text>

    <rect x="760" y="430" width="320" height="64" rx="10" fill="#f0fdf4" stroke="#86efac" stroke-width="1.5"/>
    <text x="920" y="455" text-anchor="middle" font-size="13" font-weight="bold" fill="#0f172a">厂商 OpenAPI / MQTT</text>
    <text x="920" y="474" text-anchor="middle" font-size="11" fill="#475569">设备执行</text>
  </g>
  <line x1="920" y1="134" x2="920" y2="158" stroke="#64748b" stroke-width="2" marker-end="url(#arrow)"/>
  <line x1="920" y1="224" x2="920" y2="248" stroke="#64748b" stroke-width="2" marker-end="url(#arrow)"/>
  <line x1="920" y1="314" x2="920" y2="338" stroke="#64748b" stroke-width="2" marker-end="url(#arrow)"/>
  <line x1="920" y1="404" x2="920" y2="428" stroke="#64748b" stroke-width="2" marker-end="url(#arrow)"/>

  <text x="560" y="606" text-anchor="middle" font-size="26" font-weight="bold" fill="#94a3b8" opacity="0.35" transform="rotate(-20 560 606)">https://erik.xyz</text>
  <text x="1100" y="606" text-anchor="end" font-size="12" fill="#64748b" opacity="0.55">https://erik.xyz</text>
</svg>
